PathFileType	4	(X/Y/Z)	C:\Users\Basilio\Documents\Thesis Gigler\squatting_fais\c3dfiles\041\SJ_pre4\markers_experimental.trc
DataRate	CameraRate	NumFrames	NumMarkers	Units	OrigDataRate	OrigDataStartFrame	OrigNumFrames
200.000000	200.000000	4	62	mm	200.000000	892	1785
Frame#	Time	FHD			LBHD			RBHD			C7			T10			CLAV			LSHO			LUUPA			LMUPA			LDUPA			LLEP			LMEP			LRAD			LUL			LRFIN			RSHO			RUPA1			RMUPA			RDUPA			RLEP			RMEP			RRAD			RUL			RUFIN			LASI			RASI			USACR			LSACR			RSACR			LTHI1			LTHI2			LTHI3			LTHI4			LLFC			LMFC			LTIB1			LTIB2			LTIB3			LTIB4			LLMAL			LMMAL			LHEE			LMT1			LMT2			LMT5			RTHI			RTHI2			RTHI3			RTHI4			RLFC			RMFC			RTIB1			RTIB2			RTIB3			RTIB4			RLMAL			RMMAL			RHEE			RMT1			RMT2			RMT5			*61			
		X1	Y1	Z1	X2	Y2	Z2	X3	Y3	Z3	X4	Y4	Z4	X5	Y5	Z5	X6	Y6	Z6	X7	Y7	Z7	X8	Y8	Z8	X9	Y9	Z9	X10	Y10	Z10	X11	Y11	Z11	X12	Y12	Z12	X13	Y13	Z13	X14	Y14	Z14	X15	Y15	Z15	X16	Y16	Z16	X17	Y17	Z17	X18	Y18	Z18	X19	Y19	Z19	X20	Y20	Z20	X21	Y21	Z21	X22	Y22	Z22	X23	Y23	Z23	X24	Y24	Z24	X25	Y25	Z25	X26	Y26	Z26	X27	Y27	Z27	X28	Y28	Z28	X29	Y29	Z29	X30	Y30	Z30	X31	Y31	Z31	X32	Y32	Z32	X33	Y33	Z33	X34	Y34	Z34	X35	Y35	Z35	X36	Y36	Z36	X37	Y37	Z37	X38	Y38	Z38	X39	Y39	Z39	X40	Y40	Z40	X41	Y41	Z41	X42	Y42	Z42	X43	Y43	Z43	X44	Y44	Z44	X45	Y45	Z45	X46	Y46	Z46	X47	Y47	Z47	X48	Y48	Z48	X49	Y49	Z49	X50	Y50	Z50	X51	Y51	Z51	X52	Y52	Z52	X53	Y53	Z53	X54	Y54	Z54	X55	Y55	Z55	X56	Y56	Z56	X57	Y57	Z57	X58	Y58	Z58	X59	Y59	Z59	X60	Y60	Z60	X61	Y61	Z61	X62	Y62	Z62	

893	4.46	13.93848133087159	1232.07568359375	-911.4812622070315	-165.5775146484375	1173.608032226563	-988.5450439453127	-145.7127227783203	1176.2099609375	-835.3752441406252	-224.4635620117188	1094.241943359375	-918.6573486328127	-451.0319213867189	892.5250244140627	-917.4636840820315	-121.806381225586	951.5823974609377	-920.9483032226565	-145.0649871826172	1036.237915039063	-1089.380859375	-263.1398620605469	979.3050537109377	-1237.949829101563	-282.5968017578126	934.7984619140627	-1238.818481445313	-314.9038391113282	961.635437011719	-1282.078247070313	-357.3412170410157	939.9223632812502	-1308.619506835938	-427.077362060547	965.3882446289065	-1253.1689453125	-464.3856506347657	772.5393676757815	-1127.133911132813	-480.4779663085939	722.7509765625001	-1182.512939453125	-436.7373352050782	730.5273437500001	-1088.206665039063	-126.8096618652344	1022.106689453125	-753.6425170898439	-223.2946472167969	935.4569091796877	-572.0816650390626	-218.7769165039063	887.0090332031252	-588.2511596679689	-251.4015350341797	877.2148437500002	-541.1513671875001	-283.1557312011719	839.2546997070315	-525.6369018554689	-359.0552978515626	891.8894653320315	-546.6701049804689	-465.7295227050782	754.9992675781251	-693.9160156250001	-437.3637084960939	736.9337768554689	-749.2427368164064	-456.3789978027345	685.9734497070314	-658.1841430664064	-415.117645263672	668.9387207031251	-1016.118530273438	-426.2786254882814	680.8914184570314	-814.5644531250002	-550.5683593750001	815.2166748046877	-921.9136352539065	-580.6767578125001	803.3668212890627	-949.3676757812502	-581.0208740234376	801.3218383789065	-893.576354980469	-493.1688537597657	575.8886718750001	-1137.832641601563	-408.5864562988282	571.8041381835939	-1151.301147460938	-384.047088623047	610.2514648437501	-1136.606201171875	-376.1306152343751	521.3112792968751	-1158.80859375	-223.1063385009766	450.4009704589845	-1174.158935546875	-199.7719879150391	420.135467529297	-1069.275146484375	-253.5643005371094	265.6679687500001	-1140.90966796875	-324.2618408203126	256.9812316894532	-1201.244262695313	-290.1981811523438	237.2315979003907	-1178.2607421875	-323.0634460449219	163.5957183837891	-1151.354736328125	-420.4151611328126	103.1136779785157	-1193.114624023438	-378.7277526855469	101.4568252563477	-1112.849731445313	-485.0515441894532	55.18161392211915	-1160.204345703125	-267.1484680175782	58.81406021118165	-1142.375244140625	-262.9590759277344	57.95152664184572	-1187.682495117188	-304.5189819335938	35.80407333374024	-1242.806396484375	-437.0479431152345	548.8055419921876	-705.6145629882814	-370.7554016113282	554.8505859375001	-698.4816284179689	-353.2749328613282	581.6979980468751	-706.0454101562501	-317.2546386718751	487.2224121093751	-696.1318359375001	-230.5133361816407	431.4142150878907	-688.7349853515626	-206.1116027832032	411.6109313964845	-798.6624755859377	-254.3945312500001	276.1406860351563	-694.9931640625001	-364.8122253417969	245.9210357666016	-681.3038330078126	-322.6013183593751	223.9612579345704	-684.0837402343751	-325.8635559082032	171.9081420898438	-711.4444580078126	-428.7739562988282	94.33937835693361	-695.9157714843751	-396.0638427734376	99.60691833496097	-775.9492187500002	-493.337127685547	51.20818328857423	-743.1513061523439	-274.7707824707032	52.12538528442384	-735.4017944335939	-276.1993103027344	57.44645309448244	-683.2098388671876	-323.3368225097657	36.90739440917969	-636.5664062500001	-4216.874511718751	853.1472778320315	-3944.631103515626	
894	4.465	14.19819355010987	1232.000610351563	-911.333679199219	-165.1902313232422	1173.636962890625	-988.5246582031252	-145.5871887207032	1176.199584960938	-835.3330688476565	-224.2264251708985	1094.22119140625	-918.6611328125002	-450.8501586914064	892.6977539062502	-917.4534301757815	-121.3157196044922	951.6945800781252	-921.0872192382815	-144.9317321777344	1036.283447265625	-1089.470825195313	-263.2589416503907	979.5152587890627	-1237.941284179688	-282.7638244628907	935.0737915039065	-1238.754028320313	-315.0667114257813	961.9814453125002	-1281.984619140625	-357.4007263183594	940.1834716796877	-1308.56396484375	-427.1531982421876	965.692321777344	-1253.004028320313	-464.3706054687501	772.730163574219	-1127.170166015625	-480.4679565429689	722.9588012695314	-1182.542602539063	-436.7420349121095	730.6695556640626	-1088.208618164063	-126.395736694336	1022.227905273438	-753.7309570312501	-223.384994506836	935.538757324219	-572.2912597656251	-218.6084136962891	887.0071411132815	-588.2443237304689	-251.1818542480469	877.341735839844	-541.1819458007814	-282.9120483398438	839.3947753906252	-525.7071533203126	-358.8915405273438	892.101745605469	-546.7413940429689	-465.6274414062501	755.2124023437501	-693.9024047851564	-437.357147216797	737.0430908203126	-749.2844848632814	-456.3159484863282	686.1953125000001	-658.0870971679689	-415.0856018066407	669.1154785156251	-1016.125610351563	-426.2586059570314	681.0065917968751	-814.5633544921877	-550.4233398437501	815.435485839844	-921.895690917969	-580.5947875976564	803.6269531250002	-949.3006591796877	-580.9246826171876	801.4608154296877	-893.4488525390627	-493.213104248047	576.1257934570314	-1137.837646484375	-408.7004394531251	571.9383544921876	-1151.318481445313	-384.1723937988282	610.4095458984376	-1136.588623046875	-376.2448425292969	521.5008544921876	-1158.798706054688	-223.1918029785157	450.5333862304689	-1174.256225585938	-199.8169097900391	420.1954345703126	-1069.398559570313	-253.6356811523438	265.7386474609376	-1141.000854492188	-324.2753906250001	257.0081481933594	-1201.273315429688	-290.2531127929688	237.1514892578126	-1178.243774414063	-323.1031188964844	163.6096496582032	-1151.39794921875	-420.4116210937501	103.0726928710938	-1193.150634765625	-378.7256469726563	101.4222793579102	-1112.861572265625	-485.0090942382814	55.13451385498048	-1160.185913085938	-267.1319580078126	58.7984085083008	-1142.3759765625	-262.9338684082032	57.97364044189455	-1187.681274414063	-304.5442199707032	35.80978775024415	-1242.822631835938	-437.1471557617189	549.0524902343751	-705.4652709960939	-370.7433471679688	554.9397583007814	-698.4421997070314	-353.2864074707032	581.8676147460939	-705.9280395507814	-317.3049621582032	487.3782348632814	-696.0443725585939	-230.6059112548829	431.4644775390626	-688.6202392578126	-206.1875915527344	411.7005310058595	-798.5332641601565	-254.4462280273438	276.1631774902344	-694.9022827148439	-364.8554992675782	245.8742828369141	-681.2051391601564	-322.6248168945313	223.9860229492188	-683.9946289062501	-325.9206848144532	171.9100952148438	-711.3582763671876	-428.7869567871095	94.34429168701173	-695.8980712890626	-396.0232849121095	99.6171798706055	-775.9201660156252	-493.3047180175782	51.20270919799806	-743.1846923828126	-274.7964782714844	52.11846923828126	-735.3899536132814	-276.1865844726563	57.47837066650392	-683.1840209960939	-323.4002990722657	36.84741592407227	-636.5242309570314	-4216.960937500001	853.1733398437502	-3944.611328125001	
895	4.47	13.92472648620606	1232.235595703125	-911.2930297851565	-164.8946685791016	1173.69482421875	-988.5513305664065	-145.1788024902344	1176.291015625	-835.3918457031252	-224.0431213378907	1094.303588867188	-918.714538574219	-450.6781616210939	892.942077636719	-917.4754638671877	-121.2151794433594	951.6806640625002	-921.1975708007815	-144.9269104003907	1036.318603515625	-1089.575317382813	-263.4342041015626	979.650085449219	-1237.785766601563	-282.9272460937501	935.2563476562502	-1238.7939453125	-315.1885681152344	962.1987915039065	-1281.877685546875	-357.6784973144532	940.5251464843752	-1308.51220703125	-427.2456054687501	966.0385742187502	-1252.900268554688	-464.4230041503907	772.9591064453127	-1127.10693359375	-480.4902648925782	723.1399536132814	-1182.60400390625	-436.7871093750001	730.8622436523439	-1088.2822265625	-126.2018661499024	1022.311218261719	-753.8848876953126	-223.2963562011719	935.6635742187502	-572.3139038085939	-218.0511932373047	887.2368774414065	-588.2006835937501	-250.8869171142579	877.5151367187502	-541.2320556640626	-282.8140869140626	839.639343261719	-525.7974853515626	-358.6362609863282	892.337585449219	-546.8797607421876	-465.4741210937501	755.4655761718751	-693.9008789062501	-437.2826232910157	737.2764892578126	-749.2877807617189	-456.1705322265626	686.4868164062501	-658.0301513671876	-415.0946655273439	669.2760620117189	-1016.127319335938	-426.2466430664064	681.1578369140626	-814.5742797851565	-550.2710571289064	815.6773071289065	-921.8389282226565	-580.4896850585939	803.867858886719	-949.2929687500002	-580.9161376953126	801.7732543945315	-893.4129028320315	-493.3568115234376	576.4170532226564	-1137.841552734375	-408.8011779785157	572.1548461914064	-1151.364013671875	-384.2379455566407	610.5794677734376	-1136.638549804688	-376.4006042480469	521.6633300781251	-1158.872680664063	-223.3202056884766	450.6380310058595	-1174.328002929688	-199.9806823730469	420.6575012207032	-1069.500366210938	-253.5553588867188	266.0670776367188	-1141.426147460938	-324.0824584960938	256.6073303222657	-1201.401000976563	-290.3181457519532	237.0885925292969	-1178.299438476563	-323.1589660644532	163.6455230712891	-1151.460693359375	-420.441131591797	103.0685043334961	-1193.183837890625	-378.7643127441407	101.4301071166992	-1112.8916015625	-485.0089416503907	55.17710113525392	-1160.1923828125	-267.1402587890626	58.83962249755861	-1142.377685546875	-262.9540405273438	57.99328231811525	-1187.650146484375	-304.3825073242188	35.99539184570313	-1243.088989257813	-437.2059326171876	549.2739257812501	-705.3936767578126	-370.7373352050782	555.0970458984376	-698.3923950195314	-353.2633972167969	582.0205688476564	-705.8661499023439	-317.4101867675782	487.7124938964845	-695.9620971679689	-230.6410064697266	431.4940185546876	-688.5567016601564	-206.2797546386719	411.7339477539064	-798.4410400390627	-254.4498748779297	276.2627258300782	-694.8670043945314	-364.8789062500001	245.8723144531251	-681.1973876953126	-322.6316528320313	224.0069580078126	-683.9922485351564	-325.9374084472657	171.9644622802735	-711.3649902343751	-428.8136596679689	94.33557128906251	-695.9134521484376	-396.0387268066407	99.61631774902347	-775.926208496094	-493.3204040527345	51.23899459838869	-743.1896362304689	-274.7895507812501	52.13879394531251	-735.3994140625001	-276.2230834960938	57.44407653808595	-683.2235107421876	-323.4029541015626	36.84813690185548	-636.5439453125001	-4216.695312500001	853.0718383789065	-3944.604492187501	
896	4.475000000000001	14.59096145629883	1232.004028320313	-911.2534790039065	-165.0215301513672	1174.009521484375	-988.681091308594	-144.9686126708985	1176.311401367188	-835.4145507812502	-223.7944793701172	1094.406127929688	-918.794372558594	-450.5612182617189	893.2398681640627	-917.5127563476565	-121.0215301513672	951.7683715820315	-921.5244750976565	-144.8396606445313	1036.43408203125	-1089.589599609375	-263.5464782714844	979.917907714844	-1237.754760742188	-283.1126403808594	935.5404052734377	-1238.802856445313	-315.3030700683594	962.494567871094	-1281.85791015625	-357.9586181640626	940.9548950195315	-1308.351928710938	-427.3292541503907	966.3189086914065	-1252.766357421875	-464.4809570312501	773.2005004882815	-1127.166870117188	-480.4241638183595	723.3848266601564	-1182.589477539063	-436.6663208007814	731.0925903320314	-1088.363159179688	-125.8545303344727	1022.384094238281	-754.0995483398439	-223.0289916992188	935.943786621094	-572.3964233398439	-217.8360443115235	887.354187011719	-588.1279296875001	-250.6695709228516	877.706726074219	-541.2465209960939	-282.7476806640626	839.818542480469	-525.7913818359376	-358.2896423339844	892.361755371094	-546.6135864257814	-465.2474670410157	755.6873168945314	-693.9086303710939	-436.5782470703126	737.6013793945314	-749.1262817382814	-456.0777893066407	686.7821655273439	-657.9224853515626	-415.6729125976564	669.1221923828126	-1016.591796875	-426.6944274902345	681.2390136718751	-815.2546386718752	-550.3596191406251	815.6914672851565	-921.8472290039065	-580.2686157226564	804.1121215820315	-949.2402343750002	-580.6320190429689	802.0756835937502	-893.4475708007815	-493.5310058593751	576.6685791015626	-1137.796142578125	-408.9149780273439	572.2736206054689	-1151.407836914063	-384.3657836914064	610.7749633789064	-1136.699829101563	-376.5224304199219	521.8004760742189	-1158.87548828125	-223.5315856933594	450.7537536621095	-1174.488159179688	-199.9706726074219	420.8376464843751	-1069.533935546875	-253.6247100830079	266.1739501953126	-1141.541748046875	-324.2028503417969	256.6790771484376	-1201.454833984375	-290.3315429687501	237.0735321044922	-1178.357177734375	-323.1420288085938	163.634750366211	-1151.436279296875	-420.4644165039064	103.1251449584961	-1193.197265625	-378.7054443359376	101.4249954223633	-1112.917602539063	-485.0397338867189	55.19016265869142	-1160.204467773438	-267.1774291992188	58.79143524169923	-1142.34716796875	-262.9578857421876	57.96763610839845	-1187.641723632813	-305.1942749023438	36.19318771362305	-1242.79345703125	-437.2680664062501	549.5499877929689	-705.3079223632814	-370.6889953613282	555.2424316406251	-698.3687744140626	-353.1837463378907	582.1397705078126	-705.8176879882814	-317.5560302734376	487.8848876953126	-695.8636474609376	-230.6802215576172	431.5313110351564	-688.5754394531251	-206.2835388183594	411.8345336914064	-798.4442138671877	-254.4625396728516	276.2575683593751	-694.8754272460939	-364.9092102050782	245.8593750000001	-681.1799926757814	-322.6500549316407	223.999740600586	-683.9443969726564	-325.9494018554688	171.9915008544922	-711.3648071289064	-428.7880249023439	94.35610198974611	-695.8928222656251	-396.0194396972657	99.62113952636722	-775.8748168945315	-493.3063354492189	51.25171661376955	-743.2103881835939	-274.7927856445313	52.14014053344728	-735.3823242187501	-276.1947021484376	57.45902633666994	-683.2261962890626	-323.4050903320313	36.87601470947266	-636.5438232421876	-4216.729492187501	853.1294555664065	-3944.661621093751	
